<?xml version="1.0"?>
<svg width="202" height="284" xmlns="http://www.w3.org/2000/svg" xmlns:svg="http://www.w3.org/2000/svg" enable-background="new 0 0 300 300" version="1.1" xml:space="preserve">
 <g class="layer">
  <title>Layer 1</title>
  <path d="m112.06,282.87c-3.16,0.69 -4.14,0.75 -7.42,0.98c-3.28,0.23 -4.75,-1.47 -4.78,-4.57c-0.05,-4.83 -0.25,-9.68 0.04,-14.5c0.28,-4.51 -2.09,-5.9 -5.93,-5.93c-18.47,-0.15 -35.18,-6.56 -49.98,-16.7c-21.37,-14.65 -35.33,-35.01 -41.18,-60.61c-6.51,-28.45 -1.65,-54.84 14,-79.29c6.43,-10.05 15.9,-20.83 25.59,-27.91c0.41,-0.2 0.61,-0.54 0.65,-1.17c1.18,-10.25 1.35,-23.21 4,-33.04c5.83,-21.61 21.22,-34.77 42.72,-39.03c31.53,-6.24 62.9,14.7 67,47.75c0.91,7.35 0.88,17.96 1.45,25.37c0.04,0.3 0.4,0.84 0.71,1.35c20.97,15.01 35.34,36.26 40.85,61.24c4.64,21.09 2.21,41.66 -5.87,61.66c-6.15,15.24 -13.88,29.6 -24.14,42.43c-14.8,18.47 -44.9,37.4 -54.01,40.77m-1.49,-120.78c5.07,-4.12 7.8,-9.37 8.65,-15.92c1.14,-8.81 -8.05,-20.55 -18.56,-22.62c-14.12,-2.77 -28.11,11.04 -25.02,24.86c1.65,7.41 6.25,12.21 11.47,16.66c-2.25,9.09 -4.43,17.89 -6.61,26.68c11.27,0 22.34,0 33.59,0c-2.04,-8.17 -3.82,-16.08 -6.05,-23.86c-0.77,-2.67 -0.25,-4.12 2.53,-5.8m-12.05,-104.05c11.28,0.23 23.76,4.27 33.34,8.3c0.84,-15.58 -5.26,-31.72 -18.68,-39.01c-12.55,-6.82 -26.89,-6.35 -40.67,4.31c-8.18,6.98 -12.56,27.11 -11.09,34.1c10.43,-4.36 24.2,-7.58 37.1,-7.7z" fill="url(#svg_4)" id="svg_2"/>
 </g>
 <defs>
  <linearGradient id="svg_4" x1="0" x2="1" y1="0" y2="0">
   <stop id="jq_stop_2256" offset="0" stop-color="#db2777" stop-opacity="0.99"/>
   <stop id="jq_stop_674" offset="1" stop-color="#c026d3"/>
  </linearGradient>
 </defs>
</svg>